<svg width="22" height="24" viewBox="0 0 22 24" fill="none" xmlns="http://www.w3.org/2000/svg">
<path d="M22 6.75V20.25C22 21.4922 21.0762 22.5 19.9375 22.5H2.0625C0.923828 22.5 0 21.4922 0 20.25V6.75C0 5.50781 0.923828 4.5 2.0625 4.5H5.84375L6.37227 2.95781C6.67305 2.08125 7.44219 1.5 8.30156 1.5H13.6941C14.5535 1.5 15.3227 2.08125 15.6234 2.95781L16.1562 4.5H19.9375C21.0762 4.5 22 5.50781 22 6.75ZM16.1562 13.5C16.1562 10.3969 13.8445 7.875 11 7.875C8.15547 7.875 5.84375 10.3969 5.84375 13.5C5.84375 16.6031 8.15547 19.125 11 19.125C13.8445 19.125 16.1562 16.6031 16.1562 13.5ZM14.7812 13.5C14.7812 15.7734 13.084 17.625 11 17.625C8.91602 17.625 7.21875 15.7734 7.21875 13.5C7.21875 11.2266 8.91602 9.375 11 9.375C13.084 9.375 14.7812 11.2266 14.7812 13.5Z" fill="black"/>
</svg>
