<svg width="329" height="300" viewBox="0 0 329 300" fill="none" xmlns="http://www.w3.org/2000/svg">
<g clip-path="url(#clip0)">
<path d="M300.396 114.81H45.1504V257.18H300.396V114.81Z" fill="#3F3D56"/>
<path d="M54.3693 126.94L71.1744 120.624C66.3105 114.723 59.8455 108.694 53.0224 103.054L29.8382 106.979L48.9781 99.7852C32.0992 86.4367 14.5671 76.0081 14.5671 76.0081C14.5671 76.0081 -4.5965 129.67 1.03644 153.508C4.30366 167.335 13.108 178.248 24.1448 183.981L24.5938 153.178L30.5889 186.651C36.9934 188.695 43.8327 188.961 50.3767 187.421C71.9937 182.313 84.9513 158.848 79.3184 135.01C78.4746 131.439 76.4265 127.614 73.5609 123.691L54.3693 126.94Z" fill="#D0CDE1"/>
<path opacity="0.1" d="M56.9947 180.185C62.5944 176.953 66.2396 172.783 65.1366 170.872C64.0336 168.962 58.6 170.034 53.0004 173.267C47.4007 176.5 43.7555 180.67 44.8585 182.58C45.9615 184.491 51.3951 183.418 56.9947 180.185Z" fill="black"/>
<path d="M121.91 257.179H98.9486C95.6562 254.089 92.5841 250.773 89.7547 247.254L73.7482 220.28L53.6927 186.472L51.4606 182.714L49.6255 179.619L59.544 174.11L61.6522 176.921L62.0637 177.467L64.4814 180.686L80.7647 202.376L82.5452 186.093H89.1575L83.7286 206.323L121.91 257.179Z" fill="#F2F2F2"/>
<path d="M266.64 128.361L247.623 126.463C251.011 119.061 256.012 111.089 261.487 103.42L286.411 101.112L264.753 98.9504C278.462 80.5987 293.643 65.0718 293.643 65.0718C293.643 65.0718 328.045 115.029 328.776 141.093C329.199 156.211 323.129 169.848 313.345 178.766L304.452 147.202L307.447 183.276C301.418 187.132 294.455 189.278 287.302 189.485C263.666 190.147 243.913 169.555 243.183 143.491C243.074 139.587 244.134 135.091 246.008 130.271L266.64 128.361Z" fill="#D0CDE1"/>
<path opacity="0.1" d="M291.653 182.994C292.265 180.727 287.374 177.436 280.728 175.643C274.083 173.85 268.2 174.234 267.588 176.501C266.977 178.768 271.868 182.06 278.513 183.853C285.158 185.646 291.041 185.262 291.653 182.994Z" fill="black"/>
<path d="M285.94 181.251L285.827 181.655L284.899 184.943L283.631 189.418V189.421L272.253 229.682L264.577 256.834C264.446 256.95 264.315 257.063 264.18 257.18H242.363L258.165 218.059L247.045 198.735L253.847 196.926L260.135 213.184L270.949 186.421L270.953 186.417L272.555 182.445L272.828 181.768L274.226 178.298L285.576 181.163L285.94 181.251Z" fill="#F2F2F2"/>
<path d="M140.921 266.392L131.83 300H162.958L166.54 296.694L167.917 300H201.249C201.249 300 204.83 278.238 200.423 276.585C196.015 274.932 140.921 266.392 140.921 266.392Z" fill="#2F2E41"/>
<path d="M175.906 133.89C186.403 133.89 194.913 125.38 194.913 114.883C194.913 104.385 186.403 95.8752 175.906 95.8752C165.408 95.8752 156.898 104.385 156.898 114.883C156.898 125.38 165.408 133.89 175.906 133.89Z" fill="#DED5C7"/>
<path d="M161.719 124.386C161.719 124.386 165.3 151.383 159.79 154.413C154.281 157.443 192.571 157.719 192.571 157.719C192.571 157.719 184.032 134.303 187.888 127.141L161.719 124.386Z" fill="#DED5C7"/>
<path d="M174.528 149.868C174.528 149.868 164.884 148.427 162.819 143.638L133.758 156.479C133.758 156.479 138.992 194.77 142.022 201.657L138.166 270.8C138.166 270.8 165.162 288.706 201.524 279.064L210.615 203.034L220.532 157.857L188.781 145.105C188.781 145.105 182.517 149.317 174.528 149.868Z" fill="#6C63FF"/>
<path d="M194.638 236.917C194.638 236.917 159.653 235.815 162.132 246.283C164.611 256.751 196.841 245.732 196.841 245.732L194.638 236.917Z" fill="#DED5C7"/>
<path d="M160.093 96.9035L156.539 95.4807C156.539 95.4807 163.97 87.2996 174.309 88.011L171.401 84.8097C171.401 84.8097 178.509 81.9641 184.97 89.4338C188.367 93.3604 192.297 97.976 194.747 103.175H198.553L196.965 106.673L202.525 110.171L196.818 109.542C197.158 111.458 197.21 113.413 196.973 115.344C196.728 117.275 195.743 119.036 194.224 120.255V120.255C194.224 120.255 189.817 111.131 189.817 109.709V113.266C189.817 113.266 186.263 110.064 186.263 107.93L184.324 110.42L183.355 106.507L171.401 110.42L173.339 107.219L165.908 108.286L168.816 104.373C168.816 104.373 160.416 108.997 160.093 112.91C159.77 116.823 157.311 120.53 157.311 120.53C157.311 120.53 150.723 102.239 160.093 96.9035Z" fill="#2F2E41"/>
<path d="M183.205 225.744V230.433C183.205 230.476 183.188 230.518 183.157 230.548C183.127 230.579 183.085 230.596 183.042 230.596H182.926V255.022C182.926 255.698 182.657 256.346 182.179 256.824C181.701 257.302 181.053 257.571 180.377 257.571H165.115C164.439 257.571 163.791 257.302 163.313 256.824C162.835 256.346 162.567 255.698 162.567 255.022V231.453H162.483C162.452 231.453 162.423 231.441 162.401 231.419C162.379 231.398 162.367 231.369 162.367 231.338V228.67C162.367 228.639 162.379 228.609 162.401 228.588C162.423 228.566 162.452 228.554 162.483 228.554H162.567V227.549H162.482C162.45 227.549 162.419 227.536 162.397 227.513C162.374 227.49 162.361 227.459 162.361 227.427V224.795C162.361 224.763 162.374 224.733 162.397 224.71C162.419 224.687 162.45 224.675 162.482 224.675H162.567V223.303H162.481C162.467 223.303 162.453 223.3 162.44 223.294C162.427 223.289 162.415 223.281 162.405 223.271C162.395 223.261 162.387 223.25 162.382 223.237C162.376 223.224 162.374 223.21 162.373 223.196V221.759C162.373 221.731 162.385 221.703 162.405 221.683C162.425 221.663 162.452 221.651 162.481 221.651H162.567V218.743C162.567 218.067 162.835 217.419 163.313 216.941C163.791 216.464 164.439 216.195 165.115 216.195H180.377C181.053 216.195 181.701 216.463 182.179 216.941C182.657 217.419 182.925 218.067 182.926 218.743V225.581H183.042C183.085 225.581 183.127 225.598 183.157 225.629C183.188 225.659 183.205 225.701 183.205 225.744Z" fill="#3F3D56"/>
<path d="M172.772 229.574C174.152 229.574 175.27 228.456 175.27 227.076C175.27 225.696 174.152 224.577 172.772 224.577C171.392 224.577 170.273 225.696 170.273 227.076C170.273 228.456 171.392 229.574 172.772 229.574Z" fill="#F2F2F2"/>
<path d="M211.992 157.856H220.532C220.532 157.856 247.804 217.358 241.192 224.521C234.581 231.683 194.638 251.241 194.638 251.241C194.638 251.241 191.607 236.09 188.853 236.09L216.4 219.011L202.902 186.781L211.992 157.856Z" fill="#6C63FF"/>
<path d="M150.837 234.438C150.837 234.438 181.966 250.966 176.181 258.128C170.396 265.291 142.573 245.457 142.573 245.457L150.837 234.438Z" fill="#DED5C7"/>
<path d="M137.615 156.754H133.758C133.758 156.754 128.249 161.988 126.596 173.834L110.592 209.496C110.108 210.574 109.868 211.746 109.887 212.927C109.906 214.109 110.186 215.272 110.704 216.334C114.256 223.608 123.604 240.023 137.615 244.905L144.777 250.415C144.777 250.415 143.951 236.917 155.245 236.917L135.962 215.981L143.4 191.739L137.615 156.754Z" fill="#6C63FF"/>
<path d="M267.815 0H172.955V73.1776H267.815V0Z" fill="#3F3D56"/>
<path d="M202.617 26.3499H189.367V61.2824H202.617V26.3499Z" fill="#D0CDE1"/>
<path d="M227.01 39.9014H213.76V61.2825H227.01V39.9014Z" fill="#D0CDE1"/>
<path d="M251.402 11.8953H238.152V61.2826H251.402V11.8953Z" fill="#D0CDE1"/>
<path d="M220.385 32.9751C224.044 32.9751 227.01 30.0089 227.01 26.35C227.01 22.691 224.044 19.7249 220.385 19.7249C216.726 19.7249 213.76 22.691 213.76 26.35C213.76 30.0089 216.726 32.9751 220.385 32.9751Z" fill="#6C63FF"/>
<path d="M150.016 14.0737H55.1558V87.2513H150.016V14.0737Z" fill="#3F3D56"/>
<path d="M69.6108 72.1942C69.6108 72.1942 70.5143 47.8016 88.5828 51.7165C106.651 55.6313 133.453 33.0457 133.453 33.0457" fill="#6C63FF"/>
<path d="M69.7616 70.9898V24.3127H63.7388V70.9898V76.7112V77.0127H141.433V70.9898H69.7616Z" fill="#D0CDE1"/>
<path d="M159.61 191.755L162.906 195.601C164.131 195.368 165.41 195.093 166.728 194.785L165.781 191.755L168.096 194.456C182.054 191.023 199.353 184.349 199.353 184.349C199.353 184.349 180.676 185.719 166.731 182.672C160.561 181.324 154.213 184.383 151.681 190.169C150.209 193.532 150.44 196.445 155.66 196.445C157.423 196.415 159.182 196.25 160.921 195.95L159.61 191.755Z" fill="#2F2E41"/>
</g>
<defs>
<clipPath id="clip0">
<rect width="328.797" height="300" fill="white"/>
</clipPath>
</defs>
</svg>
